# xmcd
#
# Track frame offsets: 
#        150
#        13380
#        21545
#        33972
#        45600
#        59507
#        70630
#        83447
#        91585
#        101665
#        111905
#        120807
#
# Disc length: 1758 seconds
#
# Revision: 0
# Processed by: cddbd v1.4PL0 Copyright (c) Steve Scherf et al.
# Submitted via: ExactAudioCopy v0.90b4
#
DISCID=8e06dc0c
DTITLE=Tio Bilia - Baile Gaúcho vol. 3
DYEAR=1900
DGENRE=Country
TTITLE0=Vanerão Gaúcho
TTITLE1=Farroupilha
TTITLE2=Salta Caroço
TTITLE3=Ginga-Ginga
TTITLE4=Bugio Extraviado
TTITLE5=Chimanguinha
TTITLE6=Nogo Marcolino
TTITLE7=Meio Mundo
TTITLE8=Fandango Em Santo Angelo
TTITLE9=Tio Bilia Na Oito Baixos
TTITLE10=Tanguinho
TTITLE11=Na Casa Do Tertuliano
EXTD=
EXTT0=
EXTT1=
EXTT2=
EXTT3=
EXTT4=
EXTT5=
EXTT6=
EXTT7=
EXTT8=
EXTT9=
EXTT10=
EXTT11=
PLAYORDER=
